<?xml version="1.0" encoding="UTF-8"?>
<svg width="16px" height="16px" viewBox="0 0 16 16" version="1.1" xmlns="http://www.w3.org/2000/svg" xmlns:xlink="http://www.w3.org/1999/xlink">
    <defs></defs>
    <g id="Page-1" stroke="none" stroke-width="1" fill="none" fill-rule="evenodd">
        <g transform="translate(-861.000000, -169.000000)" fill="#7D869A">
            <g id="Group-7" transform="translate(538.000000, 122.000000)">
                <g id="Group-9" transform="translate(314.000000, 38.000000)">
                    <path d="M15.8235294,15.8235294 L8.17642377,15.8235294 C7.53495169,15.8235294 7,16.3502532 7,17 C7,17.6542767 7.52670286,18.1764706 8.17642377,18.1764706 L15.8235294,18.1764706 L15.8235294,25.8235762 C15.8235294,26.4650483 16.3502532,27 17,27 C17.6542767,27 18.1764706,26.4732971 18.1764706,25.8235762 L18.1764706,18.1764706 L25.8235762,18.1764706 C26.4650483,18.1764706 27,17.6497468 27,17 C27,16.3457233 26.4732971,15.8235294 25.8235762,15.8235294 L18.1764706,15.8235294 L18.1764706,8.17642377 C18.1764706,7.53495169 17.6497468,7 17,7 C16.3457233,7 15.8235294,7.52670286 15.8235294,8.17642377 L15.8235294,15.8235294 Z" id="Combined-Shape" transform="translate(17.000000, 17.000000) rotate(-315.000000) translate(-17.000000, -17.000000) "></path>
                </g>
            </g>
        </g>
    </g>
</svg>
